<?xml version="1.0" encoding="UTF-8" standalone="no"?> <svg id="Layer_2" data-name="Layer 2" xmlns="http://www.w3.org/2000/svg" viewBox="0 0 64 64"><path d="M27.65,23.49l-1.51.08a.26.26,0,0,0-.24.26.25.25,0,0,0,.25.24h0l1.5-.08a.24.24,0,0,0,.24-.26A.24.24,0,0,0,27.65,23.49Z"/><path d="M53.1,6.94l-.21-.36a.28.28,0,0,0-.1-.09L50.54,5a.19.19,0,0,0-.1,0l-2.73-.39L45.16,4.3h0L42.29,4,38.7,3.75l-4.53.56-.46.07-.1,0-1.23.78-.06.06-3.83,4.81-.29.5-4,.71-3.41,1-6.5,2.34-.08,0-.42.4a.24.24,0,0,0-.06.11l-.18.66-.18.85-.09,1.1-.41,10.64,0,.17a.21.21,0,0,0,0,.11l.09.11a.24.24,0,0,0,.14.1l.19,0-2.5,22.7a.26.26,0,0,0,.17.26l.89.31H12a.17.17,0,0,0,.12,0l1.4-.54a.24.24,0,0,0,.16-.2l3.25-21.76L29,32.5l2,13.09a.27.27,0,0,0,.16.2l.89.34a.15.15,0,0,0,.09,0h.07l1.29-.35a.25.25,0,0,0,.18-.26l-.8-12.13,1.29.31h0a.31.31,0,0,0,.16.11l.18,0L33.9,59.61a.23.23,0,0,0,.16.24l1.11.39h.08l.1,0h0l1.37-.67a.26.26,0,0,0,.14-.21L38.37,34l5.5-1.4,4.2,18.1a.24.24,0,0,0,.19.18l1,.21h0a.21.21,0,0,0,.17,0h0l.76-.56a.25.25,0,0,0,.1-.24l-3-19.34.2-.3a.25.25,0,0,0,0-.07l4.63-15.78L53.1,8.3l0-.34V7.07A.2.2,0,0,0,53.1,6.94ZM11.8,51.62l-.42-.15L13.86,29l.89.21Zm1.39-.39-.88.34,2.93-22.23h0l.1,0,1.07.25Zm18.25-5.85L29.5,32.62l.71.17L31.8,45.52Zm1.69,0-.82.22L30.73,32.91l1.6.37ZM35,59.65l-.61-.21L35,34l1.18.28Zm1.37-.48-.86.42,1.14-25.22h0a.41.41,0,0,0,.11,0l1.09-.28Zm12.14-8.79-4.17-18,.62-.15.31-.13L49,50.49Zm1.32-.25-.32.24L45.75,32l1.12-.44a.23.23,0,0,0,.11-.08Zm1.94-35.52-4.61,15.7-.55.78-1.24.49h0l-.55.22-6.74,1.72h0l-1.19.31,4-11,.46-1.13.42-.85.32-.39a.24.24,0,0,0,0-.35.22.22,0,0,0-.16-.05.25.25,0,0,0-.19.09l-.35.43-.46.91-.47,1.16L36.36,33.76v0l-1.55-.37h0l-.26-.06v0L35,30.06A.17.17,0,0,0,35,30l2.22-5.73h0l.67-1.74.55-1.29.5-1,.4-.61.12-.12.34-.22,6.75-2.65,1.79-1h0l.34-.18a.25.25,0,0,0,.1-.34l0,0,.43-.64a.24.24,0,0,0-.06-.34.25.25,0,0,0-.35.06l-.72,1.07-1.72.92-6.77,2.66-.42.28-.19.19-.45.67L38,21l-.56,1.31-.61,1.58-2.62-.27-2.84-.15a.22.22,0,0,0-.16,0,.25.25,0,0,0-.15-.05l-2.37,0h0a.25.25,0,0,0,0,.5l2.37,0a.2.2,0,0,0,.14,0,.24.24,0,0,0,.14,0l2.83.16,2.47.25-2.12,5.49-.12.39-.52,2.88-1.26-.3h0l-2.12-.5h0l-1.23-.29h0L16.76,29.13h0l-1.34-.31h0v0l.37-2.07h0l.09-.49.06-.19h0l.16-.26.14-.07,7.66-1.33.95-.12A.25.25,0,0,0,25,24a.25.25,0,0,0-.28-.22l-1,.13-7.72,1.33-.07,0,0,0,.11-6.82.07-1.23.15-.92.19-.37a.26.26,0,0,0-.11-.34.25.25,0,0,0-.34.12l-.2.4a.19.19,0,0,0,0,.07l-.16,1-.08,1.27-.11,7.3-.69,3-1.09-.25h0l-.31-.08v-.05l.41-10.58.09-1.05.17-.82.15-.58.31-.28L21,12.72l3.36-1,4.09-.72a.29.29,0,0,0,.18-.12l.33-.58L32.69,5.6l1.15-.73,4.87-.62,3.54.28,2.83.27h0l2.54.29,2.67.37,1.94,1.3.24.13.15.25v.79Z"/></svg>